PathFileType  4	(X/Y/Z) /Users/kristensteudel/Documents/NMBL_Research/BertecForceProcessing/anc_files/
DataRate	CameraRate	NumFrames	NumMarkers	Units	OrigDataRate	OrigDataStartFrame	OrigNumFrames
  200.0		  200.0		    10		     46		 mm	  200.0	      478	    636
Frame#	Time	r_knee			r_shank_antsup			r_ankle			r_calc			r_5meta			r_toe			L_knee			L_shank_antsup			L_ankle			L_calc			L_5meta			L_toe			r_sh2			r_sh3			r_sh4			L_sh2			L_sh3			r_thigh1			r_thigh2			r_thigh3			r_thigh4			r_thigh5			L_thigh1			L_thigh2			L_thigh3			L_thigh4			r.ASIS			r.PSIS			L.ASIS			L.PSIS			C7			R_Shoulder			L_Shoulder			Sternum			R_humerus			R_elbow_med			R_elbow_lat			R_forearm			R_wrist_radius			R_wrist_ulna			L_humerus			L_elbow_med			L_elbow_lat			L_forearm			L_wrist_radius			L_wrist_ulna			
		X1	Y1	Z1	X2	Y2	Z2	X3	Y3	Z3	X4	Y4	Z4	X5	Y5	Z5	X6	Y6	Z6	X7	Y7	Z7	X8	Y8	Z8	X9	Y9	Z9	X10	Y10	Z10	X11	Y11	Z11	X12	Y12	Z12	X13	Y13	Z13	X14	Y14	Z14	X15	Y15	Z15	X16	Y16	Z16	X17	Y17	Z17	X18	Y18	Z18	X19	Y19	Z19	X20	Y20	Z20	X21	Y21	Z21	X22	Y22	Z22	X23	Y23	Z23	X24	Y24	Z24	X25	Y25	Z25	X26	Y26	Z26	X27	Y27	Z27	X28	Y28	Z28	X29	Y29	Z29	X30	Y30	Z30	X31	Y31	Z31	X32	Y32	Z32	X33	Y33	Z33	X34	Y34	Z34	X35	Y35	Z35	X36	Y36	Z36	X37	Y37	Z37	X38	Y38	Z38	X39	Y39	Z39	X40	Y40	Z40	X41	Y41	Z41	X42	Y42	Z42	X43	Y43	Z43	X44	Y44	Z44	X45	Y45	Z45	X46	Y46	Z46	

478	2.38500	1179.207	687.178	-159.968	1215.843	569.583	-154.167	1191.738	231.213	-193.191	1117.909	199.012	-257.982	1309.603	158.346	-166.392	1350.911	193.623	-221.557	622.667	554.050	-431.650	523.805	474.077	-434.700	221.916	396.783	-420.013	201.453	468.955	-389.011	129.646	255.995	-383.326	149.956	245.026	-308.125	1216.928	450.330	-162.961	1143.433	566.053	-135.476	1135.383	451.326	-155.980	498.421	556.356	-462.434	384.731	513.196	-445.505	1082.776	896.656	-130.988	1164.597	819.655	-155.445	1160.247	764.693	-136.872	1016.377	812.748	-95.265	1099.607	737.226	-132.995	823.457	698.643	-438.429	742.714	587.221	-412.128	729.419	760.122	-477.824	653.733	648.388	-440.989	935.641	1015.447	-150.934	735.295	1069.353	-242.883	941.496	998.684	-414.880	738.940	1077.086	-353.968	838.865	1544.833	-327.294	835.123	1530.780	-121.176	959.387	1497.516	-484.952	983.645	1444.357	-262.752	665.502	1415.748	-54.238	520.168	1418.426	-131.157	528.067	1439.760	-51.891	567.700	1268.043	-27.981	578.675	1145.973	-29.161	525.719	1153.318	-22.956	948.238	1254.169	-571.493	835.636	1131.226	-551.964	882.933	1176.479	-627.224	1012.622	1207.140	-529.543	1058.949	1263.123	-439.005	1088.962	1203.731	-463.881
479	2.39000	1170.764	674.860	-161.467	1211.407	558.288	-153.889	1210.792	219.716	-193.244	1138.015	185.524	-257.066	1332.928	152.899	-169.513	1371.457	192.468	-224.922	629.243	551.019	-432.152	526.565	476.273	-435.649	221.134	418.050	-420.684	205.471	491.795	-390.473	120.797	283.610	-380.784	139.625	272.474	-306.067	1221.118	439.589	-163.091	1139.434	549.304	-135.720	1139.993	434.525	-155.320	506.183	559.740	-464.517	389.846	523.593	-448.172	1081.181	888.846	-131.415	1159.611	808.702	-157.265	1153.554	754.107	-138.468	1012.209	807.601	-94.911	1092.171	729.017	-132.603	830.380	702.301	-442.409	749.787	585.003	-412.821	732.772	758.043	-477.221	659.410	644.343	-441.656	933.924	1017.063	-150.328	734.795	1070.978	-242.765	941.260	1000.490	-414.555	737.805	1078.296	-353.903	842.026	1547.825	-326.309	836.752	1531.308	-120.270	961.552	1499.144	-484.475	984.699	1445.745	-262.553	667.098	1411.568	-55.096	521.754	1411.094	-133.491	529.393	1432.762	-53.351	571.485	1261.376	-30.151	584.746	1139.810	-31.696	531.498	1146.377	-26.078	946.533	1255.992	-571.739	831.000	1135.642	-551.831	879.872	1179.711	-626.595	1011.246	1204.157	-528.890	1060.301	1257.317	-437.744	1087.665	1196.970	-463.500
480	2.39500	1161.770	661.066	-161.972	1207.059	546.829	-153.788	1227.397	211.477	-194.064	1155.284	174.017	-256.569	1352.886	150.150	-172.323	1388.775	192.168	-228.171	636.402	548.109	-432.669	531.449	479.272	-436.075	222.992	439.173	-420.897	212.427	514.030	-391.398	113.861	311.973	-380.019	132.193	300.318	-305.969	1224.896	429.140	-163.687	1136.253	532.198	-135.117	1144.329	418.679	-155.263	515.140	563.683	-466.018	396.578	533.962	-449.968	1079.138	879.819	-132.083	1153.853	796.489	-158.773	1146.390	742.511	-139.569	1007.242	801.120	-94.772	1083.834	719.610	-132.848	834.019	699.149	-441.688	756.922	582.858	-413.528	736.211	755.689	-477.288	665.293	640.418	-442.494	932.425	1018.632	-149.932	734.133	1072.148	-242.615	941.069	1002.137	-414.160	737.147	1079.447	-353.062	845.694	1550.312	-325.818	838.329	1531.531	-119.591	963.727	1500.393	-484.127	985.910	1446.853	-262.365	669.011	1406.899	-56.123	523.808	1403.045	-135.741	530.964	1424.879	-54.803	575.891	1253.972	-32.300	591.454	1132.708	-34.656	538.469	1138.685	-28.623	944.429	1257.741	-571.899	825.667	1140.286	-551.301	876.120	1183.161	-625.833	1009.184	1200.479	-528.388	1061.818	1250.172	-436.795	1085.457	1188.691	-463.362
481	2.40000	1151.989	646.594	-161.187	1203.328	535.734	-154.736	1240.562	205.122	-194.586	1169.262	163.777	-255.545	1369.045	148.037	-175.312	1402.474	192.054	-231.309	644.254	545.289	-433.087	537.314	482.025	-436.040	227.214	460.126	-420.612	221.979	535.846	-391.336	109.577	341.005	-380.026	126.744	328.489	-305.562	1227.315	419.280	-165.333	1134.309	517.850	-132.441	1146.981	404.856	-156.621	525.288	567.190	-466.723	405.618	543.549	-450.565	1076.599	869.506	-132.075	1147.466	783.487	-159.626	1138.525	729.865	-139.925	1001.739	794.067	-96.173	1074.841	709.629	-133.227	838.067	696.860	-441.272	764.588	580.508	-414.335	740.054	753.330	-477.546	671.387	636.165	-442.887	931.062	1019.927	-149.717	733.629	1072.884	-242.568	940.951	1003.642	-413.956	736.592	1080.124	-352.133	848.554	1552.741	-324.756	839.900	1531.501	-118.741	966.080	1501.304	-483.621	987.043	1447.622	-262.338	671.180	1402.205	-57.037	526.314	1394.141	-137.733	532.937	1416.278	-56.128	581.260	1245.945	-33.948	599.576	1125.373	-36.957	546.203	1130.238	-31.563	941.704	1259.319	-571.965	819.810	1144.691	-550.647	871.743	1186.501	-624.886	1006.625	1195.914	-528.219	1062.918	1241.631	-436.428	1082.745	1179.068	-463.804
482	2.40500	1142.108	633.159	-160.806	1201.256	526.819	-155.925	1250.023	199.333	-195.134	1179.692	155.487	-254.887	1380.461	145.796	-178.193	1412.408	191.262	-234.302	652.855	542.553	-433.500	544.246	484.264	-436.002	233.434	481.171	-420.341	233.712	557.105	-390.597	108.206	369.738	-381.019	124.437	355.537	-306.842	1227.155	410.933	-167.731	1134.570	507.111	-127.325	1146.710	395.720	-155.605	536.409	570.116	-467.045	416.749	552.558	-450.683	1073.673	859.112	-132.185	1140.392	770.087	-159.336	1129.872	716.697	-139.621	995.824	786.713	-96.065	1065.236	699.391	-133.204	843.599	696.937	-440.630	772.196	578.394	-416.004	743.717	750.563	-478.501	677.933	632.230	-443.514	929.796	1020.922	-149.761	733.111	1073.166	-242.544	940.918	1004.954	-413.883	736.260	1081.479	-351.082	851.253	1554.612	-324.130	841.608	1530.861	-118.244	968.166	1501.867	-483.083	988.173	1447.893	-262.454	674.058	1396.847	-57.742	529.612	1384.529	-139.496	535.309	1406.977	-57.449	587.322	1237.252	-35.975	608.216	1117.497	-39.133	555.096	1121.259	-33.840	938.261	1260.826	-571.926	813.614	1149.533	-550.089	866.797	1189.845	-623.852	1003.392	1190.660	-528.355	1063.502	1231.708	-436.481	1079.068	1168.308	-464.816
483	2.41000	1132.718	621.021	-159.989	1198.044	520.101	-158.004	1255.484	193.382	-195.315	1186.221	148.315	-255.827	1388.954	141.849	-181.275	1418.590	189.135	-236.888	661.809	539.452	-434.307	551.761	485.827	-436.130	241.484	502.072	-420.207	246.906	577.511	-389.304	109.967	397.795	-382.310	125.119	381.672	-308.555	1225.821	404.772	-169.693	1134.455	499.017	-122.531	1146.286	388.660	-152.507	548.470	572.524	-467.398	427.764	560.928	-450.269	1070.122	848.715	-131.351	1132.651	756.230	-159.480	1120.791	703.663	-138.446	989.587	779.406	-95.540	1055.073	689.198	-132.760	848.723	696.407	-441.570	780.035	576.121	-417.774	747.848	748.332	-479.678	684.406	628.635	-444.377	929.064	1021.745	-150.202	732.360	1073.026	-242.466	941.174	1006.066	-414.030	735.795	1081.935	-350.413	853.654	1556.044	-323.427	843.226	1529.866	-117.596	970.040	1502.215	-482.483	989.276	1447.777	-262.632	676.842	1391.174	-58.488	533.338	1374.469	-141.362	537.865	1396.994	-58.717	594.167	1228.358	-37.440	618.475	1109.611	-40.200	564.814	1111.752	-35.888	934.388	1262.119	-571.799	807.408	1154.126	-549.350	861.515	1193.167	-622.870	999.439	1184.485	-528.923	1063.334	1220.460	-437.260	1074.337	1156.439	-466.378
484	2.41500	1123.780	610.245	-158.893	1193.331	515.479	-160.071	1257.540	187.763	-195.600	1188.965	142.801	-256.695	1392.631	136.058	-184.524	1421.084	185.026	-239.118	670.897	537.044	-436.633	558.859	489.607	-430.979	251.278	522.768	-420.116	260.099	596.301	-387.847	114.339	425.020	-384.264	127.864	405.967	-310.428	1222.895	400.685	-170.049	1130.250	493.805	-121.477	1144.399	383.176	-149.835	561.070	574.324	-467.691	439.927	569.572	-449.648	1066.128	838.443	-131.014	1125.031	742.673	-158.733	1111.169	691.009	-136.295	983.138	772.624	-94.358	1044.735	679.558	-131.824	853.949	695.876	-442.407	787.919	573.820	-419.677	752.526	745.795	-480.478	691.248	624.562	-445.457	928.457	1022.268	-150.902	731.695	1072.637	-242.521	941.378	1007.019	-414.259	735.294	1082.100	-349.606	855.964	1557.161	-322.759	844.981	1528.414	-116.644	971.616	1502.196	-481.674	990.302	1447.209	-262.979	680.171	1385.124	-58.819	537.840	1363.725	-142.968	540.925	1386.477	-60.070	601.775	1219.121	-38.793	629.222	1101.607	-41.944	575.667	1102.045	-37.644	930.347	1263.392	-571.647	800.433	1158.062	-548.331	855.989	1196.224	-621.913	994.520	1177.488	-529.837	1062.256	1208.001	-438.453	1068.505	1143.696	-468.501
485	2.42000	1115.126	601.073	-157.476	1185.691	512.106	-161.237	1255.835	181.847	-195.954	1187.862	138.210	-258.100	1391.727	128.329	-187.262	1419.853	179.466	-240.193	681.143	532.629	-436.565	569.625	487.286	-431.052	262.740	542.914	-419.831	275.014	615.118	-385.992	121.393	450.448	-387.883	135.850	428.227	-312.389	1218.280	397.448	-169.447	1122.043	489.953	-125.921	1139.762	377.846	-149.377	574.024	576.132	-468.207	453.184	577.716	-449.034	1062.005	827.938	-131.247	1117.107	729.707	-157.479	1101.798	679.283	-133.135	976.476	766.427	-93.052	1034.326	670.935	-130.844	859.303	695.176	-443.811	796.485	571.215	-422.104	756.700	742.967	-481.215	698.648	620.613	-446.603	928.050	1022.569	-151.972	731.016	1071.617	-242.749	941.374	1007.467	-414.969	734.909	1081.975	-348.897	857.878	1557.644	-321.797	846.775	1526.288	-115.274	972.865	1501.931	-480.810	991.385	1446.324	-263.309	683.776	1378.718	-58.928	542.920	1352.507	-144.118	544.388	1375.592	-61.121	610.030	1209.571	-39.923	640.925	1093.213	-43.188	587.272	1091.921	-39.305	925.805	1264.394	-571.388	794.169	1162.184	-547.632	849.910	1198.933	-620.978	989.625	1170.394	-531.215	1059.831	1194.522	-440.213	1061.623	1130.233	-471.291
486	2.42500	1106.616	593.485	-155.893	1174.621	507.347	-160.701	1250.320	175.123	-196.761	1183.117	133.845	-260.915	1386.605	119.006	-189.534	1415.343	172.117	-240.264	692.339	527.857	-437.373	576.984	491.528	-437.374	275.822	562.101	-419.336	290.683	633.039	-384.029	131.777	473.160	-388.847	145.225	449.843	-313.940	1210.569	393.493	-167.491	1109.718	483.773	-128.093	1132.282	371.595	-150.022	587.835	577.925	-468.378	467.606	585.117	-448.118	1057.509	818.547	-131.250	1109.153	717.802	-155.782	1092.323	668.577	-129.834	969.743	760.815	-91.038	1024.308	663.547	-130.244	865.388	694.394	-445.327	805.841	568.585	-424.849	761.368	739.927	-481.709	706.614	615.572	-448.160	927.852	1022.555	-153.292	730.176	1070.506	-243.054	941.207	1007.557	-415.599	734.686	1081.471	-348.479	859.532	1557.723	-320.877	848.809	1523.708	-113.387	973.600	1501.445	-480.103	992.341	1445.006	-263.612	687.529	1371.432	-59.152	548.331	1340.793	-145.190	548.374	1364.296	-62.196	619.100	1200.102	-40.819	653.524	1084.520	-44.099	599.973	1081.580	-40.551	921.086	1265.384	-571.050	787.437	1165.713	-546.745	843.782	1201.432	-620.183	982.467	1161.845	-532.890	1056.137	1180.117	-442.476	1053.160	1116.167	-474.443
487	2.43000	1098.382	587.468	-154.506	1163.721	500.819	-156.649	1241.540	167.742	-198.176	1175.297	129.287	-264.515	1377.044	108.527	-191.424	1407.717	163.109	-239.627	703.681	523.709	-439.247	587.595	492.920	-438.084	290.182	580.779	-419.719	307.457	649.887	-382.120	144.639	494.136	-389.709	156.753	469.803	-315.415	1200.444	387.466	-165.743	1097.189	476.309	-128.167	1121.974	364.299	-151.346	601.793	579.076	-468.745	482.315	592.236	-447.659	1052.846	810.131	-129.905	1101.621	708.344	-153.980	1083.605	659.717	-127.026	963.000	755.542	-88.212	1015.296	657.662	-129.424	871.790	693.087	-447.082	815.606	565.677	-426.932	766.392	736.488	-482.218	715.548	610.567	-449.282	927.738	1021.938	-154.597	729.592	1068.853	-243.014	941.040	1007.394	-416.128	734.671	1079.920	-347.954	860.766	1557.163	-319.703	850.770	1520.535	-111.314	973.903	1500.837	-479.616	993.380	1443.383	-263.877	691.739	1363.856	-58.808	554.232	1328.783	-145.663	552.958	1352.441	-62.707	629.261	1189.235	-40.191	666.933	1075.751	-45.057	613.457	1071.205	-41.832	915.914	1265.900	-570.696	780.156	1169.150	-545.573	837.548	1203.649	-619.438	975.222	1153.459	-534.958	1051.337	1164.957	-445.172	1044.451	1102.509	-478.300
